<svg width="802" height="298" viewBox="0 0 802 298" fill="none" xmlns="http://www.w3.org/2000/svg">
<path d="M162.639 88.0269C158.506 80.9051 148.197 80.9051 144.08 88.0269L73.4554 210.014C69.3224 217.135 74.4847 226.042 82.7348 226.042H147.168C151 226.042 154.531 224.005 156.447 220.704L194.848 154.366C196.764 151.065 196.764 146.975 194.848 143.675L162.639 88.0269Z" fill="#FD43BE"/>
<path d="M313.167 72H248.734C244.902 72 241.37 74.0371 239.454 77.3374L201.054 143.676C199.138 146.976 199.138 151.066 201.054 154.367L233.263 210.015C237.396 217.137 247.705 217.137 251.838 210.015L322.446 88.028C326.579 80.9062 321.417 72 313.167 72Z" fill="#FD43BE"/>
<path d="M357.586 141.813V89.0227H371.394V111.683H370.618C370.618 106.203 371.315 101.656 372.724 98.0552C374.134 94.4548 376.224 91.7545 379.011 89.9701C381.798 88.1857 385.171 87.2856 389.13 87.2856H389.89C395.891 87.2856 400.547 89.2753 403.84 93.2705C407.134 97.2499 408.781 103.361 408.781 111.588V141.813H391.331V111.115C391.331 108.698 390.618 106.693 389.177 105.13C387.736 103.566 385.772 102.793 383.286 102.793C380.8 102.793 378.789 103.566 377.285 105.13C375.78 106.693 375.036 108.746 375.036 111.304V141.813H357.586Z" fill="black"/>
<path d="M446.881 143.723C442.209 143.723 438.06 143.028 434.418 141.623C430.776 140.218 427.688 138.275 425.171 135.796C422.653 133.317 420.721 130.443 419.423 127.19C418.108 123.937 417.459 120.463 417.459 116.768V114.478C417.459 110.657 418.14 107.088 419.518 103.772C420.895 100.456 422.859 97.5499 425.408 95.0707C427.958 92.5915 431.061 90.6334 434.703 89.2438C438.346 87.8384 442.399 87.1436 446.881 87.1436C451.362 87.1436 455.495 87.8542 459.105 89.2438C462.716 90.6492 465.804 92.5915 468.353 95.0707C470.903 97.5499 472.882 100.456 474.244 103.772C475.621 107.088 476.302 110.657 476.302 114.478V116.768C476.302 120.463 475.653 123.937 474.339 127.19C473.024 130.443 471.108 133.317 468.591 135.796C466.057 138.275 462.985 140.233 459.343 141.623C455.701 143.028 451.536 143.723 446.881 143.723ZM446.881 129.195C449.573 129.195 451.79 128.627 453.547 127.474C455.305 126.321 456.635 124.711 457.522 122.642C458.409 120.573 458.868 118.221 458.868 115.615C458.868 113.009 458.409 110.467 457.474 108.398C456.54 106.33 455.194 104.688 453.405 103.472C451.615 102.256 449.446 101.656 446.881 101.656C444.315 101.656 442.146 102.256 440.357 103.472C438.567 104.688 437.205 106.33 436.287 108.398C435.353 110.467 434.893 112.883 434.893 115.615C434.893 118.347 435.337 120.573 436.239 122.642C437.126 124.711 438.472 126.321 440.262 127.474C442.051 128.627 444.252 129.195 446.881 129.195Z" fill="black"/>
<path d="M510.08 143.724C505.472 143.724 501.482 142.981 498.093 141.481C494.704 139.981 491.87 137.96 489.605 135.402C487.341 132.859 485.647 129.954 484.522 126.701C483.398 123.448 482.844 120.068 482.844 116.563V114.652C482.844 110.957 483.43 107.451 484.617 104.135C485.805 100.819 487.547 97.8819 489.843 95.3395C492.139 92.7971 494.989 90.7759 498.378 89.3073C501.767 87.8387 505.662 87.1123 510.08 87.1123C514.942 87.1123 519.217 88.0756 522.938 89.9863C526.644 91.897 529.605 94.5341 531.806 97.8819C534.007 101.23 535.242 105.067 535.496 109.409H518.425C518.235 107.309 517.444 105.525 516.082 104.056C514.704 102.588 512.709 101.861 510.08 101.861C507.847 101.861 506.011 102.43 504.57 103.582C503.129 104.735 502.052 106.33 501.355 108.367C500.642 110.404 500.294 112.836 500.294 115.631C500.294 118.252 500.595 120.574 501.212 122.611C501.814 124.648 502.843 126.227 504.284 127.348C505.725 128.469 507.657 129.022 510.08 129.022C511.87 129.022 513.374 128.706 514.593 128.059C515.812 127.427 516.763 126.511 517.475 125.327C518.172 124.143 518.631 122.753 518.821 121.174H535.891C535.638 125.643 534.371 129.559 532.107 132.938C529.842 136.318 526.818 138.97 523.049 140.881C519.28 142.792 514.957 143.755 510.096 143.755L510.08 143.724Z" fill="black"/>
<path d="M571.058 143.723C566.387 143.723 562.238 143.028 558.596 141.623C554.954 140.218 551.866 138.275 549.348 135.796C546.831 133.317 544.899 130.443 543.6 127.19C542.286 123.937 541.637 120.463 541.637 116.768V114.478C541.637 110.657 542.318 107.088 543.695 103.772C545.073 100.456 547.037 97.5499 549.586 95.0707C552.135 92.5915 555.239 90.6334 558.881 89.2438C562.523 87.8384 566.577 87.1436 571.058 87.1436C575.54 87.1436 579.673 87.8542 583.283 89.2438C586.894 90.6492 589.981 92.5915 592.531 95.0707C595.08 97.5499 597.06 100.456 598.422 103.772C599.799 107.088 600.48 110.657 600.48 114.478V116.768C600.48 120.463 599.831 123.937 598.517 127.19C597.202 130.443 595.286 133.317 592.768 135.796C590.235 138.275 587.163 140.233 583.521 141.623C579.879 143.028 575.714 143.723 571.058 143.723ZM571.058 129.195C573.75 129.195 575.967 128.627 577.725 127.474C579.483 126.321 580.813 124.711 581.7 122.642C582.586 120.573 583.046 118.221 583.046 115.615C583.046 113.009 582.586 110.467 581.652 108.398C580.718 106.33 579.372 104.688 577.582 103.472C575.793 102.256 573.624 101.656 571.058 101.656C568.493 101.656 566.324 102.256 564.534 103.472C562.745 104.688 561.383 106.33 560.465 108.398C559.53 110.467 559.071 112.883 559.071 115.615C559.071 118.347 559.515 120.573 560.417 122.642C561.304 124.711 562.65 126.321 564.439 127.474C566.229 128.627 568.43 129.195 571.058 129.195Z" fill="black"/>
<path d="M631.867 143.534C628.161 143.534 624.789 142.871 621.748 141.528C618.708 140.186 616.095 138.323 613.878 135.938C611.661 133.554 609.983 130.727 608.795 127.474C607.607 124.221 607.021 120.684 607.021 116.863V114.573C607.021 110.751 607.576 107.198 608.7 103.914C609.824 100.629 611.439 97.7554 613.546 95.3077C615.652 92.8601 618.217 90.9494 621.21 89.5756C624.218 88.2017 627.576 87.5227 631.281 87.5227C635.556 87.5227 639.23 88.4702 642.271 90.3493C645.311 92.2285 647.639 94.9603 649.27 98.5291C650.901 102.098 651.772 106.441 651.914 111.541L647.892 108.572V72H665.342V141.813H651.534V120.384H653.45C653.323 125.106 652.357 129.196 650.568 132.67C648.779 136.144 646.308 138.828 643.141 140.707C639.974 142.586 636.221 143.534 631.867 143.534ZM636.57 129.196C638.676 129.196 640.608 128.722 642.366 127.759C644.123 126.795 645.548 125.406 646.641 123.558C647.734 121.711 648.272 119.484 648.272 116.863V113.61C648.272 111.067 647.718 108.92 646.593 107.198C645.469 105.477 644.044 104.151 642.286 103.235C640.529 102.319 638.628 101.845 636.586 101.845C634.29 101.845 632.215 102.43 630.394 103.614C628.573 104.798 627.132 106.425 626.071 108.493C625.01 110.562 624.488 112.978 624.488 115.71C624.488 118.442 625.01 120.826 626.071 122.832C627.132 124.837 628.557 126.401 630.394 127.522C632.215 128.643 634.274 129.196 636.586 129.196H636.57Z" fill="black"/>
<path d="M702.823 143.724C698.342 143.724 694.383 142.966 690.931 141.434C687.479 139.902 684.565 137.833 682.206 135.212C679.847 132.607 678.041 129.669 676.79 126.416C675.539 123.164 674.922 119.816 674.922 116.373V114.463C674.922 110.894 675.539 107.467 676.79 104.183C678.041 100.898 679.831 97.9766 682.159 95.4342C684.486 92.8919 687.352 90.8548 690.741 89.3546C694.13 87.8545 697.962 87.1123 702.253 87.1123C707.938 87.1123 712.768 88.3914 716.727 90.9338C720.685 93.4761 723.726 96.8554 725.832 101.024C727.938 105.193 728.999 109.741 728.999 114.652V120.195H682.19V110.831H718.928L712.879 115.031C712.879 112.031 712.483 109.504 711.675 107.436C710.868 105.367 709.696 103.788 708.128 102.698C706.56 101.609 704.597 101.072 702.237 101.072C699.878 101.072 697.93 101.593 696.236 102.651C694.542 103.709 693.243 105.304 692.356 107.436C691.47 109.567 691.01 112.268 691.01 115.521C691.01 118.458 691.422 120.984 692.261 123.132C693.085 125.264 694.367 126.906 696.093 128.059C697.819 129.212 700.052 129.78 702.808 129.78C705.23 129.78 707.241 129.369 708.809 128.533C710.377 127.711 711.485 126.59 712.119 125.185H728.033C727.257 128.754 725.753 131.943 723.472 134.754C721.208 137.565 718.326 139.76 714.842 141.355C711.359 142.95 707.352 143.739 702.808 143.739L702.823 143.724Z" fill="black"/>
<path d="M371.489 224.132L357.586 171.342H374.656L387.514 224.132H371.505H371.489ZM380.024 224.132L379.929 209.588H390.475L390.571 224.132H380.024ZM383.286 224.132L392.677 173.063H410.903L421.639 224.132H408.401L397.269 173.442H405.329L395.163 224.132H383.271H383.286ZM413.12 224.132L413.215 209.588H423.761L423.666 224.132H413.12ZM417.332 224.132L428.939 171.342H444.853L432.201 224.132H417.332Z" fill="black"/>
<path d="M478.33 226.044C473.659 226.044 469.51 225.349 465.868 223.943C462.226 222.538 459.138 220.596 456.62 218.116C454.102 215.637 452.17 212.763 450.872 209.51C449.557 206.257 448.908 202.783 448.908 199.088V196.798C448.908 192.977 449.589 189.408 450.967 186.092C452.344 182.776 454.308 179.87 456.857 177.391C459.407 174.912 462.511 172.954 466.153 171.564C469.795 170.159 473.849 169.464 478.33 169.464C482.811 169.464 486.944 170.174 490.555 171.564C494.165 172.97 497.253 174.912 499.802 177.391C502.352 179.87 504.331 182.776 505.693 186.092C507.071 189.408 507.752 192.977 507.752 196.798V199.088C507.752 202.783 507.102 206.257 505.788 209.51C504.474 212.763 502.558 215.637 500.04 218.116C497.506 220.596 494.434 222.554 490.792 223.943C487.15 225.349 482.985 226.044 478.33 226.044ZM478.33 211.516C481.022 211.516 483.239 210.947 484.996 209.794C486.754 208.642 488.084 207.031 488.971 204.962C489.858 202.894 490.317 200.541 490.317 197.935C490.317 195.33 489.858 192.787 488.924 190.719C487.989 188.65 486.643 187.008 484.854 185.792C483.065 184.576 480.895 183.976 478.33 183.976C475.765 183.976 473.595 184.576 471.806 185.792C470.016 187.008 468.655 188.65 467.736 190.719C466.802 192.787 466.343 195.203 466.343 197.935C466.343 200.667 466.786 202.894 467.689 204.962C468.575 207.031 469.921 208.642 471.711 209.794C473.5 210.947 475.701 211.516 478.33 211.516Z" fill="black"/>
<path d="M517.363 224.132V171.343H531.172V194.287H530.982C530.982 186.897 532.533 181.086 535.637 176.885C538.741 172.685 543.19 170.569 549.018 170.569H551.124V185.491H547.102C543.206 185.491 540.182 186.55 538.044 188.65C535.906 190.75 534.829 193.782 534.829 197.73V224.117H517.379L517.363 224.132Z" fill="black"/>
<path d="M558.027 224.133V154.32H575.478V224.133H558.027ZM595.62 224.133L579.991 199.451H572.897L593.609 171.343H611.835L592.168 197.824V189.408L615.081 224.117H595.62V224.133Z" fill="black"/>
</svg>
